<svg width="48" height="48" viewBox="0 0 48 48" xmlns="http://www.w3.org/2000/svg">
<path d="M6 35.9231V33.9231H25.1154V35.9231H6ZM6 26.3462V24.3462H14.9231V26.3462H6ZM6 16.7693V14.7693H14.9231V16.7693H6ZM40.5846 36L32.8077 28.3385C32.0846 28.8795 31.2994 29.2981 30.452 29.5943C29.6045 29.8904 28.7359 30.0385 27.8461 30.0385C25.6009 30.0385 23.687 29.2622 22.1045 27.7096C20.522 26.157 19.7307 24.2603 19.7307 22.0193C19.7307 19.7782 20.5229 17.8814 22.1072 16.3289C23.6915 14.7763 25.6075 14 27.8552 14C30.103 14 32.0161 14.7763 33.5943 16.3289C35.1725 17.8814 35.9616 19.7718 35.9616 22C35.9616 22.8897 35.8135 23.7583 35.5173 24.6057C35.2212 25.4532 34.7898 26.2257 34.2231 26.9231L42 34.5846L40.5846 36ZM27.8461 28.0385C29.5449 28.0385 30.9888 27.4551 32.1779 26.2885C33.367 25.1218 33.9616 23.6987 33.9616 22.0193C33.9616 20.3398 33.367 18.9167 32.1779 17.75C30.9888 16.5833 29.5449 16 27.8461 16C26.1474 16 24.7035 16.5833 23.5144 17.75C22.3253 18.9167 21.7307 20.3398 21.7307 22.0193C21.7307 23.6987 22.3253 25.1218 23.5144 26.2885C24.7035 27.4551 26.1474 28.0385 27.8461 28.0385Z"/>
</svg>
