<svg width="48" height="48" viewBox="0 0 48 48" fill="none" xmlns="http://www.w3.org/2000/svg">
<path d="M16.8 33.3076L24 26.1076L31.2 33.3076L33.3076 31.2L26.1076 24L33.3076 16.8L31.2 14.6923L24 21.8923L16.8 14.6923L14.6923 16.8L21.8923 24L14.6923 31.2L16.8 33.3076ZM24.0033 42.9999C21.3754 42.9999 18.9054 42.5012 16.5931 41.5039C14.2808 40.5066 12.2694 39.1531 10.559 37.4434C8.84853 35.7337 7.49442 33.7232 6.49665 31.412C5.49888 29.1007 5 26.6312 5 24.0033C5 21.3754 5.49867 18.9054 6.496 16.5931C7.49333 14.2808 8.84683 12.2694 10.5565 10.559C12.2662 8.84854 14.2767 7.49442 16.588 6.49665C18.8992 5.49889 21.3687 5 23.9966 5C26.6245 5 29.0945 5.49867 31.4068 6.496C33.7191 7.49334 35.7305 8.84683 37.4409 10.5565C39.1514 12.2662 40.5055 14.2767 41.5033 16.588C42.501 18.8992 42.9999 21.3687 42.9999 23.9966C42.9999 26.6245 42.5012 29.0945 41.5039 31.4068C40.5066 33.7191 39.1531 35.7305 37.4434 37.4409C35.7337 39.1514 33.7232 40.5055 31.412 41.5033C29.1007 42.501 26.6312 42.9999 24.0033 42.9999ZM24 40C28.4666 40 32.25 38.45 35.35 35.35C38.45 32.25 40 28.4666 40 24C40 19.5333 38.45 15.75 35.35 12.65C32.25 9.54995 28.4666 7.99995 24 7.99995C19.5333 7.99995 15.75 9.54995 12.65 12.65C9.54995 15.75 7.99995 19.5333 7.99995 24C7.99995 28.4666 9.54995 32.25 12.65 35.35C15.75 38.45 19.5333 40 24 40Z" fill="#F13939"/>
</svg>
