<svg width="104" height="105" viewBox="0 0 104 105" fill="none" xmlns="http://www.w3.org/2000/svg">
<path id="Vector" d="M52.0096 104.702C44.8241 104.702 38.07 103.339 31.7474 100.612C25.4247 97.8847 19.9248 94.1837 15.2479 89.5088C10.5708 84.8339 6.86816 79.3364 4.13989 73.0166C1.41162 66.6968 0.0474854 59.9441 0.0474854 52.7585C0.0474854 45.573 1.41103 38.8189 4.13811 32.4963C6.86519 26.1736 10.5662 20.6738 15.241 15.9968C19.916 11.3197 25.4134 7.61706 31.7333 4.8888C38.0531 2.16053 44.8057 0.796387 51.9913 0.796387C59.1769 0.796387 65.931 2.15993 72.2536 4.88702C78.5763 7.6141 84.0761 11.3151 88.7531 15.9899C93.4301 20.6649 97.1328 26.1623 99.8611 32.4822C102.589 38.802 103.953 45.5546 103.953 52.7402C103.953 59.9258 102.59 66.6799 99.8628 73.0025C97.1358 79.3252 93.4348 84.825 88.7599 89.502C84.085 94.179 78.5875 97.8817 72.2677 100.61C65.9479 103.338 59.1952 104.702 52.0096 104.702ZM52.0005 96.4994C64.214 96.4994 74.5591 92.2611 83.0356 83.7845C91.5122 75.308 95.7505 64.9629 95.7505 52.7494C95.7505 40.5358 91.5122 30.1908 83.0356 21.7142C74.5591 13.2377 64.214 8.99938 52.0005 8.99938C39.7869 8.99938 29.4419 13.2377 20.9653 21.7142C12.4888 30.1908 8.25047 40.5358 8.25047 52.7494C8.25047 64.9629 12.4888 75.308 20.9653 83.7845C29.4419 92.2611 39.7869 96.4994 52.0005 96.4994Z" fill="#5CBF20"/>
</svg>
