<svg width="48" height="48" viewBox="0 0 48 48" xmlns="http://www.w3.org/2000/svg">
<path d="M11.2308 42.0001C10.3103 42.0001 9.54167 41.6918 8.925 41.0751C8.30833 40.4585 8 39.6899 8 38.7694V13.2309C8 12.3104 8.30833 11.5418 8.925 10.9251C9.54167 10.3085 10.3103 10.0001 11.2308 10.0001H14.7692V5.53857H16.9231V10.0001H31.2307V5.53857H33.2308V10.0001H36.7693C37.6898 10.0001 38.4583 10.3085 39.075 10.9251C39.6917 11.5418 40 12.3104 40 13.2309V23.2309H38V21.2309H10V38.7694C10 39.077 10.1282 39.3591 10.3846 39.6155C10.641 39.8719 10.9231 40.0001 11.2308 40.0001H23.6923V42.0001H11.2308ZM10 19.2309H38V13.2309C38 12.9232 37.8718 12.6412 37.6154 12.3847C37.359 12.1283 37.0769 12.0001 36.7693 12.0001H11.2308C10.9231 12.0001 10.641 12.1283 10.3846 12.3847C10.1282 12.6412 10 12.9232 10 13.2309V19.2309ZM28.4616 42.0001V37.5809L39.1269 26.9655C39.3244 26.7681 39.5295 26.6348 39.7423 26.5655C39.9551 26.4963 40.1679 26.4617 40.3807 26.4617C40.6013 26.4617 40.8244 26.5046 41.05 26.5905C41.2756 26.6764 41.4743 26.8053 41.6461 26.977L43.4961 28.8655C43.6602 29.063 43.7852 29.2681 43.8711 29.4809C43.957 29.6937 44 29.9065 44 30.1194C44 30.3322 43.959 30.5469 43.877 30.7636C43.7949 30.9802 43.6679 31.1873 43.4961 31.3848L32.8808 42.0001H28.4616ZM30.2307 40.2309H32.1307L39.0654 33.2848L38.1269 32.3348L37.2154 31.3578L30.2307 38.3309V40.2309ZM38.1269 32.3348L37.2154 31.3578L39.0654 33.2848L38.1269 32.3348Z"/>
</svg>
