<svg width="180" height="77" viewBox="0 0 180 77" fill="none" xmlns="http://www.w3.org/2000/svg">
<path d="M126.602 6.81794V9.62446H151.426C153.081 9.62446 155.563 9.62446 157.218 11.229C158.873 12.8336 158.873 15.2399 158.873 16.844V40.9057C158.873 42.5107 158.873 44.9167 157.218 46.5211C155.563 48.1253 153.081 48.1253 151.426 48.1253H139.428C137.359 48.1253 134.669 48.1253 133.635 45.9197C132.601 43.7137 134.049 41.7083 135.29 40.1044L151.426 19.2509H126.602L116.672 32.0836C115.009 34.2327 113.569 36.094 113.569 38.5003C113.569 40.9057 114.91 42.639 116.672 44.9167L119.155 48.1253C121.637 51.3333 124.119 54.5414 127.429 56.1461C130.739 57.7503 134.669 57.7503 140.048 57.7503H150.805C157.011 57.7503 166.32 57.7503 172.526 51.7345C178.732 45.7187 178.732 36.8961 178.732 33.6875V24.0626C178.732 20.8545 178.732 12.0313 172.526 6.01568C166.32 1.65224e-05 157.011 0.00730953 150.805 0.00536462L133.635 1.6079e-05C131.98 -0.000470152 129.911 1.60635e-05 128.257 1.60506C126.602 3.20913 126.602 5.21436 126.602 6.81794Z" fill="#CD202C"/>
<path d="M96.8134 19.2487H121.637L91.8484 57.749H67.0249L96.8134 19.2487Z" fill="#CD202C"/>
<path d="M0 26.0673C0 24.4634 0 22.4582 1.65483 20.8541C3.30967 19.25 5.37832 19.25 7.03367 19.25H48.6137C53.9919 19.25 57.9225 19.25 61.2322 20.8541C64.5419 22.4582 67.0244 25.6658 69.5069 28.875L71.9894 32.0831C73.7516 34.361 75.0925 36.0935 75.0925 38.5C75.0925 40.9052 73.6522 42.7666 71.9894 44.9162L62.06 57.7492H37.2359L53.3715 36.8953C54.6125 35.2912 56.0606 33.2856 55.0263 31.08C53.9919 28.875 51.3028 28.875 49.2341 28.875H29.789V76.9997H9.92949V28.8755H0V26.0673Z" fill="#CD202C"/>
</svg>
