<svg width="24" height="24" viewBox="0 0 24 24" fill="none" xmlns="http://www.w3.org/2000/svg">
<path d="M12.0016 21.5C10.6877 21.5 9.45268 21.2506 8.29655 20.752C7.1404 20.2533 6.13472 19.5765 5.2795 18.7217C4.42427 17.8669 3.74721 16.8616 3.24833 15.706C2.74944 14.5504 2.5 13.3156 2.5 12.0017C2.5 10.6877 2.74933 9.45268 3.248 8.29655C3.74667 7.1404 4.42342 6.13472 5.27825 5.2795C6.1331 4.42427 7.13834 3.74721 8.29398 3.24833C9.44959 2.74944 10.6844 2.5 11.9983 2.5C13.3122 2.5 14.5473 2.74933 15.7034 3.248C16.8596 3.74667 17.8652 4.42342 18.7205 5.27825C19.5757 6.1331 20.2527 7.13834 20.7516 8.29398C21.2505 9.44959 21.5 10.6844 21.5 11.9983C21.5 13.3122 21.2506 14.5473 20.752 15.7034C20.2533 16.8596 19.5765 17.8652 18.7217 18.7205C17.8669 19.5757 16.8616 20.2527 15.706 20.7516C14.5504 21.2505 13.3156 21.5 12.0016 21.5Z" fill="#CCCCCC"/>
<path d="M12.9286 17.8306H11.0714V10.7114H12.9286V17.8306Z" fill="white"/>
<path d="M12.7125 8.3048C12.5209 8.49646 12.2833 8.59229 12 8.59229C11.7167 8.59229 11.4792 8.49646 11.2875 8.3048C11.0958 8.11314 11 7.87563 11 7.59229C11 7.30896 11.0958 7.07146 11.2875 6.87978C11.4792 6.68812 11.7167 6.59229 12 6.59229C12.2833 6.59229 12.5209 6.68812 12.7125 6.87978C12.9042 7.07146 13 7.30896 13 7.59229C13 7.87563 12.9042 8.11314 12.7125 8.3048Z" fill="white"/>
</svg>
