<svg width="64" height="26" viewBox="0 0 64 26" xmlns="http://www.w3.org/2000/svg">
<path d="M45.3267 2.2983V3.24216H54.2229C54.8113 3.24216 55.7062 3.24216 56.2998 3.78487C56.8935 4.32759 56.89 5.13931 56.89 5.6836V13.8087C56.89 14.3451 56.89 15.1647 56.2998 15.6964C55.7096 16.2281 54.8148 16.2407 54.2229 16.2407H49.9271C49.1846 16.2407 48.2206 16.2407 47.8502 15.4934C47.4798 14.7462 47.9973 14.0777 48.4439 13.5302L54.2229 6.50633H45.3267L41.7769 10.8355C41.185 11.5623 40.6675 12.1884 40.6675 13.0001C40.6675 13.8118 41.1435 14.4017 41.7769 15.171L42.6683 16.2517C43.5527 17.3324 44.444 18.4178 45.6279 18.9606C46.8117 19.5033 48.224 19.5001 50.1487 19.5001H54.0013C56.2219 19.5001 59.5588 19.5001 61.7777 17.4708C63.9965 15.4415 64 12.4605 64 11.3751V8.11876C64 7.03804 64 4.05702 61.7777 2.0293C59.5554 0.00157328 56.2219 0 54.0013 0H47.8502C47.26 0 46.5175 5.62584e-07 45.9273 0.536427C45.3371 1.07285 45.3267 1.754 45.3267 2.2983"/>
<path d="M34.6628 6.5H43.5503L32.8853 19.4969H23.9978L34.6628 6.5Z"/>
<path d="M0 8.79656C0 8.25856 -3.30118e-07 7.58055 0.591922 7.03941C1.18384 6.49826 1.92461 6.5077 2.51827 6.5077H17.4029C19.3258 6.5077 20.7381 6.5077 21.9219 7.04413C23.1057 7.58056 23.9988 8.67071 24.8867 9.74986L25.7711 10.8369C26.4029 11.6061 26.8857 12.1897 26.8857 13.0015C26.8857 13.8132 26.3665 14.4456 25.7711 15.1723L22.2179 19.5046H13.3304L19.1094 12.4619C19.5542 11.9223 20.0734 11.2443 19.7031 10.4955C19.3327 9.74671 18.3686 9.74986 17.6261 9.74986H10.6685V26H3.55673V9.74514H0V8.80128"/>
</svg>
