<svg width="48" height="48" viewBox="0 0 48 48" xmlns="http://www.w3.org/2000/svg">
<path d="M33.7693 27.2306C32.6769 27.2306 31.7372 26.837 30.95 26.0498C30.1628 25.2627 29.7693 24.3229 29.7693 23.2306C29.7693 22.1383 30.1628 21.1986 30.95 20.4114C31.7372 19.6242 32.6769 19.2306 33.7693 19.2306C34.8616 19.2306 35.8013 19.6242 36.5885 20.4114C37.3757 21.1986 37.7693 22.1383 37.7693 23.2306C37.7693 24.3229 37.3757 25.2627 36.5885 26.0498C35.8013 26.837 34.8616 27.2306 33.7693 27.2306ZM24.7693 37.2306V35.4306C24.7693 34.8101 24.9242 34.2475 25.234 33.7429C25.5438 33.2383 25.9838 32.8752 26.5539 32.6537C27.6803 32.1793 28.8459 31.8236 30.0507 31.5864C31.2554 31.3492 32.4949 31.2306 33.7693 31.2306C34.9917 31.2306 36.2062 31.3492 37.413 31.5864C38.6197 31.8236 39.8103 32.1793 40.9846 32.6537C41.5547 32.8752 41.9947 33.2383 42.3045 33.7429C42.6143 34.2475 42.7693 34.8101 42.7693 35.4306V37.2306H24.7693ZM19.2308 22.7691C17.5808 22.7691 16.1683 22.1816 14.9933 21.0066C13.8183 19.8316 13.2308 18.4191 13.2308 16.7691C13.2308 15.1191 13.8183 13.7065 14.9933 12.5315C16.1683 11.3565 17.5808 10.769 19.2308 10.769C20.8808 10.769 22.2933 11.3565 23.4683 12.5315C24.6433 13.7065 25.2308 15.1191 25.2308 16.7691C25.2308 18.4191 24.6433 19.8316 23.4683 21.0066C22.2933 22.1816 20.8808 22.7691 19.2308 22.7691ZM5.23075 37.2306V33.9383C5.23075 33.0732 5.46922 32.2781 5.94615 31.5529C6.42308 30.8278 7.0718 30.2922 7.8923 29.946C9.66153 29.0486 11.4988 28.3716 13.4041 27.9152C15.3094 27.4588 17.2516 27.2306 19.2308 27.2306C20.0385 27.2306 20.8462 27.2729 21.6539 27.3575C22.4616 27.4421 23.2693 27.5537 24.077 27.6921L23.2231 28.5844L22.3693 29.4768C21.8462 29.3742 21.3231 29.3076 20.8 29.2768C20.2769 29.246 19.7539 29.2306 19.2308 29.2306C17.4257 29.2306 15.643 29.4255 13.8827 29.8152C12.1224 30.205 10.4436 30.8332 8.84615 31.6998C8.41025 31.9434 8.03205 32.2473 7.71155 32.6114C7.39102 32.9755 7.23075 33.4178 7.23075 33.9383V35.2306H19.2308V37.2306H5.23075ZM19.2308 20.7691C20.3308 20.7691 21.2724 20.3774 22.0558 19.5941C22.8391 18.8108 23.2308 17.8691 23.2308 16.7691C23.2308 15.6691 22.8391 14.7274 22.0558 13.9441C21.2724 13.1608 20.3308 12.7691 19.2308 12.7691C18.1308 12.7691 17.1891 13.1608 16.4058 13.9441C15.6224 14.7274 15.2308 15.6691 15.2308 16.7691C15.2308 17.8691 15.6224 18.8108 16.4058 19.5941C17.1891 20.3774 18.1308 20.7691 19.2308 20.7691Z"/>
</svg>
