<svg width="48" height="48" viewBox="0 0 48 48" xmlns="http://www.w3.org/2000/svg">
<path d="M10 30.2307V12C10 10.6949 10.375 9.6455 11.125 8.8519C11.875 8.05833 12.891 7.45065 14.173 7.02885C15.4551 6.60705 16.9455 6.33012 18.6443 6.19805C20.343 6.06602 22.1282 6 24 6C25.9436 6 27.7622 6.06602 29.4557 6.19805C31.1493 6.33012 32.6314 6.60705 33.902 7.02885C35.1725 7.45065 36.1731 8.05833 36.9039 8.8519C37.6346 9.6455 38 10.6949 38 12V30.2307C38 31.8384 37.4404 33.2019 36.3211 34.3211C35.2019 35.4404 33.8384 36 32.2307 36L35.2307 39V40H33.5385L29.5385 36H18.4615L14.4615 40H12.7692V39L15.7693 36C14.1616 36 12.7981 35.4404 11.6788 34.3211C10.5596 33.2019 10 31.8384 10 30.2307ZM24 8C20.0821 8 17.2295 8.25962 15.4423 8.77885C13.6551 9.29808 12.5769 10.0641 12.2077 11.0769H35.8384C35.4923 10.0487 34.4237 9.27883 32.6327 8.7673C30.8417 8.25577 27.9641 8 24 8ZM12 22H23V13.077H12V22ZM32.2307 24H12H36H32.2307ZM25 22H36V13.077H25V22ZM17 31.2307C17.6359 31.2307 18.1667 31.0179 18.5923 30.5923C19.0179 30.1667 19.2308 29.6359 19.2308 29C19.2308 28.3641 19.0179 27.8333 18.5923 27.4077C18.1667 26.9821 17.6359 26.7693 17 26.7693C16.3641 26.7693 15.8333 26.9821 15.4077 27.4077C14.9821 27.8333 14.7693 28.3641 14.7693 29C14.7693 29.6359 14.9821 30.1667 15.4077 30.5923C15.8333 31.0179 16.3641 31.2307 17 31.2307ZM31 31.2307C31.6359 31.2307 32.1667 31.0179 32.5923 30.5923C33.0179 30.1667 33.2307 29.6359 33.2307 29C33.2307 28.3641 33.0179 27.8333 32.5923 27.4077C32.1667 26.9821 31.6359 26.7693 31 26.7693C30.3641 26.7693 29.8333 26.9821 29.4077 27.4077C28.9821 27.8333 28.7693 28.3641 28.7693 29C28.7693 29.6359 28.9821 30.1667 29.4077 30.5923C29.8333 31.0179 30.3641 31.2307 31 31.2307ZM15.7693 34H32.2307C33.2769 34 34.1667 33.6333 34.9 32.9C35.6333 32.1667 36 31.2769 36 30.2307V24H12V30.2307C12 31.2769 12.3667 32.1667 13.1 32.9C13.8333 33.6333 14.7231 34 15.7693 34ZM24 11.0769H35.8384H12.2077H24Z"/>
</svg>
