<svg width="48" height="48" viewBox="0 0 48 48" xmlns="http://www.w3.org/2000/svg">
<path d="M10.1923 38C9.27177 38 8.50317 37.6917 7.8865 37.075C7.26984 36.4583 6.9615 35.6898 6.9615 34.7693V13.2307C6.9615 12.3102 7.26984 11.5417 7.8865 10.925C8.50317 10.3083 9.27177 10 10.1923 10H31.7308C32.6513 10 33.4199 10.3083 34.0366 10.925C34.6532 11.5417 34.9616 12.3102 34.9616 13.2307V22.5385L41.0385 16.4615V31.5385L34.9616 25.4615V34.7693C34.9616 35.6898 34.6532 36.4583 34.0366 37.075C33.4199 37.6917 32.6513 38 31.7308 38H10.1923ZM10.1923 36H31.7308C32.0898 36 32.3846 35.8846 32.6154 35.6539C32.8462 35.4231 32.9616 35.1282 32.9616 34.7693V13.2307C32.9616 12.8718 32.8462 12.5769 32.6154 12.3461C32.3846 12.1154 32.0898 12 31.7308 12H10.1923C9.83334 12 9.53847 12.1154 9.3077 12.3461C9.07694 12.5769 8.96155 12.8718 8.96155 13.2307V34.7693C8.96155 35.1282 9.07694 35.4231 9.3077 35.6539C9.53847 35.8846 9.83334 36 10.1923 36Z"/>
</svg>
