<svg width="258" height="150" viewBox="0 0 258 150" fill="none" xmlns="http://www.w3.org/2000/svg">
<path fill-rule="evenodd" clip-rule="evenodd" d="M0 125.25H4V142C4 144.209 5.79086 146 8 146H23.125V150H8C3.58173 150 0 146.418 0 142V125.25ZM0 91.75H4V58.25H0V91.75ZM0 24.75H4V8C4 5.79086 5.79086 4 8 4H23.125V0H8C3.58172 0 0 3.58172 0 8V24.75ZM53.375 0V4H83.625V0H53.375ZM113.875 0V4H144.125V0H113.875ZM174.375 0V4H204.625V0H174.375ZM234.875 0V4H250C252.209 4 254 5.79086 254 8V24.75H258V8C258 3.58172 254.418 0 250 0H234.875ZM258 58.25H254V91.75H258V58.25ZM258 125.25H254V142C254 144.209 252.209 146 250 146H234.875V150H250C254.418 150 258 146.418 258 142V125.25ZM204.625 150V146H174.375V150H204.625ZM144.125 150V146H113.875V150H144.125ZM83.625 150V146H53.375V150H83.625Z" fill="#EAEAEA"/>
</svg>
